Coordinates
version=1
nRows=9
nColumns=63
inDegrees=yes

Units are S.I. units (second, meters, Newtons, ...)
If the header above contains a line with 'inDegrees', this indicates whether rotational values are in degrees (yes) or radians (no).

endheader
time	pelvis_tilt	pelvis_list	pelvis_rotation	pelvis_tx	pelvis_ty	pelvis_tz	hip_flexion_r	hip_adduction_r	hip_rotation_r	knee_angle_r	knee_angle_r_beta	ankle_angle_r	subtalar_angle_r	mtp_angle_r	hip_flexion_l	hip_adduction_l	hip_rotation_l	knee_angle_l	knee_angle_l_beta	ankle_angle_l	subtalar_angle_l	mtp_angle_l	L5_S1_Flex_Ext	L5_S1_Lat_Bending	L5_S1_axial_rotation	L4_L5_Flex_Ext	L4_L5_Lat_Bending	L4_L5_axial_rotation	L3_L4_Flex_Ext	L3_L4_Lat_Bending	L3_L4_axial_rotation	L2_L3_Flex_Ext	L2_L3_Lat_Bending	L2_L3_axial_rotation	L1_L2_Flex_Ext	L1_L2_Lat_Bending	L1_L2_axial_rotation	L1_T12_Flex_Ext	L1_T12_Lat_Bending	L1_T12_axial_rotation	Abs_r3	Abs_r2	Abs_r1	Abs_t1	Abs_t2	neck_flexion	neck_bending	neck_rotation	arm_flex_r	arm_add_r	arm_rot_r	elbow_flex_r	pro_sup_r	wrist_flex_r	wrist_dev_r	arm_flex_l	arm_add_l	arm_rot_l	elbow_flex_l	pro_sup_l	wrist_flex_l	wrist_dev_l
      0.00000000	      6.78420297	     -7.45472725	     91.41650107	      0.21779484	      0.78652637	      0.73889854	      0.42908308	      6.03270722	     10.35355315	      0.38063330	      0.00664330	     34.40338086	     -8.96108114	      0.00000000	      3.50811396	    -11.00793139	     32.64612909	      1.53317799	      0.02675900	     27.64216637	    -17.13608166	      0.00000000	      0.53700754	      0.94014173	     -1.19760638	      0.99727671	      1.25038850	     -1.27245678	      0.88224970	      2.28586061	     -1.27245678	      0.61374592	      2.28586061	     -1.04790558	      0.49866521	      1.91713702	     -0.97305518	      0.30684611	      1.45627954	     -0.89820478	      3.83579119	     10.63507129	     -6.66072739	      0.00000000	      0.00000000	     28.21523792	      1.18335885	      7.01641906	     22.73855103	      5.32915817	    129.60449152	     16.52670359	      5.05701833	     -0.34690033	     -0.70605870	     23.04839787	      8.96011940	    107.95676383	     15.66431351	      6.88957686	     -0.32182931	     -2.08530754
      0.01666667	      6.13672733	     -7.34314717	     91.49456804	      0.21690365	      0.78756119	      0.73894718	      0.19875681	      5.33250992	     10.30185163	      0.37483062	      0.00654203	     34.92588791	     -9.37492538	      0.00000000	      3.54470820	    -10.28066482	     32.67745541	      1.55137522	      0.02707661	     27.99662047	    -17.26749243	      0.00000000	      0.52104846	      0.87481680	     -1.25083685	      0.96763910	      1.16350634	     -1.32901415	      0.85603052	      2.12702956	     -1.32901415	      0.59550629	      2.12702956	     -1.09448225	      0.48384560	      1.78392642	     -1.01630494	      0.29772709	      1.35509122	     -0.93812764	      3.72179707	      9.89610259	     -6.95677932	      0.00000000	      0.00000000	     28.23018332	      1.28911084	      7.55958767	     22.20003606	      5.77189316	    129.44617349	     15.58049801	      4.92632269	     -0.73980277	     -0.81058440	     23.04547164	      8.91060459	    108.46052502	     15.53772337	      7.14886391	      0.07281505	     -0.19191479
      0.03333333	      5.49451809	     -7.38637993	     91.64140862	      0.21580070	      0.78825639	      0.73933431	      0.25705368	      4.63281194	     10.50671321	      0.50021071	      0.00873032	     35.27148916	    -10.28972742	      0.00000000	      3.97989704	     -9.41229846	     31.80382987	      2.02371868	      0.03532055	     28.47740849	    -16.39552757	      0.00000000	      0.51707951	      0.81110667	     -1.33609509	      0.96026837	      1.07877187	     -1.41960104	      0.84950993	      1.97212476	     -1.41960104	      0.59097018	      1.97212476	     -1.16908321	      0.48016004	      1.65400872	     -1.08557726	      0.29545923	      1.25640423	     -1.00207132	      3.69344726	      9.17540086	     -7.43096008	      0.00000000	      0.00000000	     28.09761161	      2.03564192	      8.56855863	     21.96538373	      6.06779833	    129.67618384	     15.17738754	      5.88523623	     -1.43740419	     -1.28251424	     22.70002735	      8.40421056	    104.44321917	     16.20130811	     10.67160659	     -0.29830010	      1.26401112
      0.05000000	      4.93024564	     -7.30384924	     91.64091842	      0.21515596	      0.78891246	      0.73884106	      0.03273553	      4.02389532	     10.97843287	      0.36017984	      0.00628632	     35.39501624	    -11.15738384	      0.00000000	      3.74849170	     -8.87829218	     32.61555122	      1.52055894	      0.02653876	     27.89584044	    -17.53009935	      0.00000000	      0.50184121	      0.74958767	     -1.35346422	      0.93196931	      0.99695160	     -1.43805573	      0.82447492	      1.82254745	     -1.43805573	      0.57355432	      1.82254745	     -1.18428119	      0.46600975	      1.52855917	     -1.09968967	      0.28675207	      1.16111129	     -1.01509816	      3.58460157	      8.47948559	     -7.52756193	      0.00000000	      0.00000000	     28.23763612	      2.45915373	      8.90490508	     21.51958150	      6.31886784	    129.87303778	     14.77372043	      4.97410745	     -2.08327918	     -1.87887952	     22.61356410	      8.38640510	    105.20158046	     16.13347645	      9.99537102	     -0.11665023	      1.49464966
      0.06666667	      4.70033810	     -7.36719497	     91.67790791	      0.21447049	      0.78927706	      0.73878167	      0.09023091	      3.76110516	     10.95922958	      0.35301622	      0.00616130	     35.44919398	    -11.37050179	      0.00000000	      3.87712418	     -8.58725565	     32.47786240	      1.40192269	      0.02446817	     27.84502514	    -17.59461590	      0.00000000	      0.50063407	      0.72800025	     -1.37415611	      0.92972753	      0.96824033	     -1.46004086	      0.82249172	      1.77005980	     -1.46004086	      0.57217468	      1.77005980	     -1.20238659	      0.46488880	      1.48453810	     -1.11650184	      0.28606231	      1.12767238	     -1.03061708	      3.57597911	      8.23528438	     -7.64264402	      0.00000000	      0.00000000	     28.24742107	      2.52789038	      9.02928025	     21.28261455	      6.36020314	    129.89592311	     14.61852252	      4.86159708	     -2.41861742	     -2.23241226	     22.47098680	      8.47958160	    105.31403792	     16.00374575	      9.88879737	     -0.27309912	      1.19651494
      0.08333333	      4.34457114	     -7.48713237	     91.64211325	      0.21384116	      0.78951938	      0.73862403	      0.21521006	      3.36567190	     12.25256603	      0.32832862	      0.00573042	     35.12229738	    -13.27295103	      0.00000000	      4.04479423	     -8.15506958	     32.35477297	      1.36243201	      0.02377892	     27.46308708	    -17.58195105	      0.00000000	      0.51130535	      0.68706044	     -1.36991512	      0.94954517	      0.91379038	     -1.45553481	      0.84002356	      1.67051875	     -1.45553481	      0.58437089	      1.67051875	     -1.19867573	      0.47479815	      1.40105364	     -1.11305603	      0.29215988	      1.06425662	     -1.02743634	      3.65220299	      7.77216509	     -7.61905690	      0.00000000	      0.00000000	     28.25385563	      2.96243295	      9.13623016	     21.32613394	      6.97146931	    135.94058000	     13.78236229	      4.35406433	     -3.41505901	     -3.82349498	     22.73470578	      9.15264687	    111.86851362	     14.70981738	      6.03646358	      0.29909905	     -0.63495213
      0.10000000	      4.33828810	     -7.49897675	     91.61524668	      0.21325328	      0.78966443	      0.73840716	      0.23732653	      3.34259746	     12.24033009	      0.31960219	      0.00557811	     35.17370202	    -13.27876543	      0.00000000	      4.08768747	     -8.09390959	     32.34241981	      1.33758372	      0.02334524	     27.41239645	    -17.56615747	      0.00000000	      0.50725350	      0.68763258	     -1.37083061	      0.94202047	      0.91455134	     -1.45650753	      0.83336677	      1.67190987	     -1.45650753	      0.57974002	      1.67190987	     -1.19947679	      0.47103560	      1.40222037	     -1.11379987	      0.28984465	      1.06514287	     -1.02812296	      3.62326101	      7.77863732	     -7.62414863	      0.00000000	      0.00000000	     28.26475595	      3.02046679	      9.14012171	     21.27434537	      6.92477475	    135.94500009	     13.77715017	      4.34542452	     -3.44658206	     -3.83852360	     22.73218633	      9.22453495	    111.85818189	     14.72713969	      6.02742630	      0.28787535	     -0.70815397
      0.11666667	      4.15530672	     -7.62037663	     91.51942285	      0.21260894	      0.78957263	      0.73806107	      0.37855827	      3.11492880	     11.52399909	      0.32782812	      0.00572168	     35.59900088	    -12.18176470	      0.00000000	      4.15131238	     -7.84698181	     31.92848490	      1.25667450	      0.02193311	     27.08185496	    -17.38695363	      0.00000000	      0.52401746	      0.67333121	     -1.37561756	      0.97315283	      0.89553051	     -1.46159366	      0.86090829	      1.63713751	     -1.46159366	      0.59889956	      1.63713751	     -1.20366537	      0.48660261	      1.37305701	     -1.11768927	      0.29942358	      1.04299005	     -1.03171317	      3.74300433	      7.61685735	     -7.65077220	      0.00000000	      0.00000000	     28.25903007	      4.26086385	     10.73515402	     21.17953466	      6.85542960	    135.14225017	     14.00255881	      4.40407629	     -4.00646312	     -3.81517983	     22.50632427	      9.08483896	    110.49910288	     15.06720170	      6.63111954	     -0.43964277	     -1.70702916
      0.13333333	      4.11197188	     -7.78807266	     91.42333286	      0.21201443	      0.78926443	      0.73786463	      0.67326135	      3.04568080	      9.62142337	      0.52793299	      0.00921417	     36.13556093	     -9.83647949	      0.00000000	      4.55865041	     -7.60146480	     30.39490466	      1.91181628	      0.03336749	     27.70110947	    -15.50680891	      0.00000000	      0.55959820	      0.66765104	     -1.36612990	      1.03922981	      0.88797588	     -1.45151302	      0.91936388	      1.62332674	     -1.45151302	      0.63956478	      1.62332674	     -1.19536366	      0.51964288	      1.36147400	     -1.10998054	      0.31975441	      1.03419146	     -1.02459742	      3.99715395	      7.55260210	     -7.59800466	      0.00000000	      0.00000000	     28.06814538	      4.81215853	     11.30786820	     21.17117124	      6.74985420	    133.90637380	     14.18564553	      6.07934014	     -4.14039811	     -3.21541059	     22.35556090	      8.88458135	    108.58708283	     15.50835744	      8.78814703	     -0.93823606	     -1.86316263
